<?xml version="1.0" encoding="utf-8"?>
<!-- Generator: Adobe Illustrator 24.3.0, SVG Export Plug-In . SVG Version: 6.00 Build 0)  -->
<svg version="1.1" id="Ebene_1" xmlns="http://www.w3.org/2000/svg" xmlns:xlink="http://www.w3.org/1999/xlink" x="0px" y="0px"
	 width="129.9px" height="82.4px" viewBox="0 0 129.9 82.4" style="enable-background:new 0 0 129.9 82.4;" xml:space="preserve">
<style type="text/css">
	.st0{fill:#000001;}
	.st1{fill:#E2000B;}

	@media (prefers-color-scheme: dark) {
		.st0{fill:#fff;}
	}
</style>
<g>
	<g id="m-element">
		<path class="st0" d="M1.9,45.5h12.7V51c0.9-1.1,1.8-2.3,3.7-3.5c3.9-2.5,8.8-3.3,13.6-3.3c5.1,0,9.1,1.1,11.6,2.4
			c2.6,1.5,3.7,3.1,4.6,4.4c0.7-0.6,1.2-1.3,2.4-2.3c4.3-3.2,10.1-4.5,15.9-4.5c2.7,0,6.8,0.4,10.3,1.9c6.5,2.9,6.5,7.7,6.5,11.4
			v23.6H69.8V59.5c-0.1-2.8-0.2-7.6-9.2-7.6c-2.5,0-5,0.4-7.2,1.5c-3.5,1.8-4.1,5-4.1,9v18.7H35.8V60.7c0-1.3,0-2.6-0.4-3.8
			c-1.1-3.4-4.6-4.6-8.3-4.6c-3,0-6,0.4-8.4,1.8c-3.5,2.2-3.4,5.2-3.4,7.6v19.4H1.9V45.5z"/>
	</g>
	<path id="stripe-element" class="st1" d="M112.7,9.2C94.2-1.2,50.5-0.2,3.3,5C2.7,5.1,2.3,5.5,2.3,6.1v9.5c0,0.6,0.5,1.1,1.2,1
		c49-4.2,83.4-4.3,100.1,4c24.1,12,11.5,41.7-0.9,59.3c-0.1,0.1,2.3,0.5,2.4,0.4C107.6,77.4,150.2,30.3,112.7,9.2z"/>
</g>
<g>
</g>
<g>
</g>
<g>
</g>
<g>
</g>
<g>
</g>
<g>
</g>
<g>
</g>
<g>
</g>
<g>
</g>
<g>
</g>
<g>
</g>
<g>
</g>
<g>
</g>
<g>
</g>
<g>
</g>
</svg>
